<svg width="50" height="50" viewBox="0 0 50 50" fill="none" xmlns="http://www.w3.org/2000/svg">
<rect width="50" height="50" fill="white"/>
<path d="M6.70039 23.5586H8.73945V28H5.02461V21.2852H8.73945V22.1641H5.96211V27.1562H7.84883V24.3906H6.70039V23.5586ZM18.7426 22.1172V24.1562H20.6293V22.1172H18.7426ZM21.5668 28H20.6293V25H18.7426V28H17.852V21.2852H21.5668V28ZM41.1512 22.1172V24.1562H43.0379V22.1172H41.1512ZM43.9754 28H43.0379V25H41.1512V28H40.2605V21.2852H43.9754V28Z" fill="black"/>
<path d="M31.5 25V28" stroke="black"/>
<path d="M37 21.5C37 23.1569 35.0899 25.5 31.5 25.5C27.9101 25.5 26 23.1569 26 21.5C26 22.5 27.9101 25 31.5 25C35.0899 25 37 22.5 37 21.5Z" fill="black"/>
</svg>
